# xmcd
#
# Track frame offsets:
# 150
# 18532
# 38685
# 51655
# 69410
# 88852
# 99395
# 115235
# 132347
# 149122
# 170150
# 187785
#
# Disc length: 2757 seconds
#
#
# Revision: 2
# Processed by: cddbd v1.5.2PL0 Copyright (c) Steve Scherf et al.
# Submitted via: FreeRIP 2.945 
#
DISCID=b00ac30c
DTITLE=Sandro and Gustavo - Sandro and Gustavo
DYEAR=1900
DGENRE=
TTITLE0=Pra Não Morrer De Amor
TTITLE1=Ímã
TTITLE2=A Garagem Da Vizinha
TTITLE3=Dona De Mim
TTITLE4=Pra Te Esquecer Não Dá
TTITLE5=O Negócio Da Minha Mulher
TTITLE6=Adeus Pra Nunca Mais
TTITLE7=Você Não Cuidou De Mim
TTITLE8=Rabo De Saia
TTITLE9=Por Amor
TTITLE10=Como Posso Te Chamar De Amiga Se Te Chamei De Amor
TTITLE11=Chuva De Vento
EXTD=
EXTT0=
EXTT1=
EXTT2=
EXTT3=
EXTT4=
EXTT5=
EXTT6=
EXTT7=
EXTT8=
EXTT9=
EXTT10=
EXTT11=
PLAYORDER=
